# xmcd
#
# Track frame offsets:
# 150
# 21422
# 41782
# 61565
# 82399
# 100121
# 118490
# 141800
# 158291
#
# Disc length: 2288 seconds
#
# Revision: 0
# Processed by: cddbd v1.5.1PL0 Copyright (c) Steve Scherf et al.
# Submitted via: Audion 3.0.2 (http://www.panic.com/audion/)
#
DISCID=7508ee09
DTITLE=Gilles Sioui - Old Fool
DYEAR=1900
DGENRE=
TTITLE0=Asking
TTITLE1=Old Fool
TTITLE2=Grandfather
TTITLE3=dog day
TTITLE4=Jack's band
TTITLE5=This time I'm leaving
TTITLE6=Happy trail
TTITLE7=Another wasted morning
TTITLE8=Back where I belong
EXTD=
EXTT0=
EXTT1=
EXTT2=
EXTT3=
EXTT4=
EXTT5=
EXTT6=
EXTT7=
EXTT8=
PLAYORDER=
